# xmcd
#
# Track frame offsets: 
#        150
#        17742
#        29502
#        49077
#        69459
#        87169
#        101860
#        124560
#        149983
#        164007
#        178461
#        191204
#
# Disc length: 2815 seconds
#
# Revision: 0
# Processed by: cddbd v1.5.2PL0 Copyright (c) Steve Scherf et al.
# Submitted via: ExactAudioCopyFreeDBPlugin 1.0
#
DISCID=ba0afd0c
DTITLE=Werner Dannemann - Funny Toes
DYEAR=2014
DGENRE=Blues
TTITLE0=Man-Shape
TTITLE1=One Super Girl
TTITLE2=Two Opinions
TTITLE3=Three Minds
TTITLE4=Chrysalis
TTITLE5=To The Max
TTITLE6=Shine On you
TTITLE7=Hell And Paradise
TTITLE8=Spanish Crimes
TTITLE9=Composed 1978...
TTITLE10=The World Keep On Turning
TTITLE11=Meerbach
EXTD=
EXTT0=
EXTT1=
EXTT2=
EXTT3=
EXTT4=
EXTT5=
EXTT6=
EXTT7=
EXTT8=
EXTT9=
EXTT10=
EXTT11=
PLAYORDER=
